<svg width="117" height="39" viewBox="0 0 117 39" fill="none" xmlns="http://www.w3.org/2000/svg">
<path d="M0.584087 28.6795V25.9755H9.02574C9.58039 25.9755 10.0599 25.8569 10.4641 25.6125C10.8684 25.3754 11.176 25.0566 11.3779 24.6713C11.5876 24.2865 11.6928 23.8716 11.6928 23.4415C11.6928 23.0344 11.6029 22.649 11.4152 22.2934C11.228 21.9377 10.951 21.6564 10.5688 21.4416C10.1871 21.2263 9.73022 21.1156 9.20554 21.1156H5.64056C4.50919 21.1156 3.52029 20.9299 2.68175 20.5524C1.84268 20.1744 1.18342 19.6263 0.711837 18.8925C0.239731 18.1593 0 17.2701 0 16.2255C0 15.3363 0.217126 14.5141 0.659265 13.7586C1.09352 13.0025 1.70757 12.3951 2.49407 11.9282C3.28056 11.4617 4.17956 11.2246 5.19106 11.2246H13.3257V13.9286H5.50545C4.79414 13.9286 4.22477 14.1439 3.8126 14.5807C3.40042 15.018 3.19118 15.5292 3.19118 16.122C3.19118 16.6924 3.40042 17.1885 3.82784 17.6107C4.25474 18.0335 4.86143 18.241 5.64792 18.241H9.04099C10.3069 18.241 11.3779 18.4407 12.2395 18.8411C13.1007 19.2409 13.7599 19.8187 14.2094 20.567C14.6589 21.323 14.8834 22.2414 14.8834 23.338C14.8834 24.2714 14.6511 25.1456 14.1942 25.9531C13.73 26.7607 13.0933 27.4201 12.2769 27.9239C11.4604 28.4278 10.5088 28.6795 9.42319 28.6795H0.584087Z" fill="#AE4C2D"/>
<path d="M26.6364 29.0872C25.0482 29.0872 23.6177 28.7611 22.3669 28.109C21.1083 27.457 20.1273 26.5532 19.4229 25.39C18.7189 24.2267 18.3672 22.8711 18.3672 21.3152V11.2168H21.5878V21.2783C21.5878 22.3303 21.8202 23.234 22.277 23.9974C22.7413 24.7602 23.3558 25.353 24.1271 25.7602C24.8989 26.1679 25.7227 26.3754 26.5991 26.3754C27.4975 26.3754 28.3366 26.1679 29.1084 25.7602C29.8796 25.353 30.5016 24.7602 30.9732 23.9974C31.4453 23.234 31.685 22.323 31.685 21.2783V11.2168H34.9056V21.3152C34.9056 22.8638 34.5465 24.2267 33.8347 25.39C33.1229 26.5532 32.1418 27.4642 30.8911 28.109C29.6478 28.7611 28.232 29.0872 26.6364 29.0872Z" fill="#AE4C2D"/>
<path d="M39.2652 28.6799V18.5815C39.2652 17.0329 39.6169 15.67 40.3209 14.5068C41.0253 13.3435 41.999 12.4398 43.2423 11.7877C44.4857 11.1356 45.9089 10.8096 47.4971 10.8096C49.1148 10.8096 50.5379 11.1356 51.7665 11.7877C53.0025 12.4398 53.9688 13.3435 54.6728 14.5068C55.3767 15.67 55.729 17.0257 55.729 18.5815V28.6799H52.5457V18.6184C52.5457 17.5665 52.3059 16.6627 51.8338 15.8993C51.3623 15.1365 50.7403 14.551 49.9685 14.136C49.1973 13.7289 48.3735 13.5214 47.4971 13.5214C46.6207 13.5214 45.7969 13.7289 45.0251 14.136C44.2533 14.5437 43.6319 15.1365 43.1598 15.8993C42.6882 16.6627 42.4485 17.5737 42.4485 18.6184V28.6799H39.2652Z" fill="#AE4C2D"/>
<path d="M69.0241 29.0864C67.3166 29.0864 65.7809 28.7234 64.4251 27.9902C63.0618 27.2565 61.9836 26.2045 61.1892 24.8265C60.3953 23.4485 59.9984 21.7887 59.9984 19.8475V3.69629H63.1817V14.3428H63.2495C63.6386 13.6392 64.1554 13.0168 64.7925 12.4983C65.4292 11.9721 66.1558 11.5644 66.9722 11.2685C67.7887 10.9721 68.6498 10.8239 69.5488 10.8239C71.1891 10.8239 72.6496 11.1869 73.9455 11.9201C75.2341 12.6538 76.2603 13.6834 77.0089 15.0172C77.7581 16.3505 78.133 17.9287 78.133 19.7586C78.133 21.1959 77.9079 22.4928 77.4584 23.6409C77.0089 24.7969 76.3802 25.7823 75.5711 26.6044C74.762 27.4271 73.803 28.0495 72.7021 28.4717C71.586 28.8789 70.3653 29.0864 69.0241 29.0864ZM69.0241 26.3824C70.1103 26.3824 71.0918 26.1229 71.983 25.5972C72.8746 25.0709 73.5785 24.3299 74.1106 23.3742C74.6421 22.4184 74.9044 21.2775 74.9044 19.9515C74.9044 18.677 74.6421 17.5585 74.1253 16.5954C73.6085 15.6397 72.9119 14.8836 72.0355 14.3355C71.1591 13.7874 70.1702 13.5134 69.062 13.5134C67.9758 13.5134 66.9943 13.7724 66.1032 14.2986C65.2115 14.8243 64.515 15.5726 63.9908 16.5434C63.474 17.5138 63.2117 18.6624 63.2117 19.9812C63.2117 21.2848 63.474 22.4111 63.9908 23.3669C64.5076 24.3227 65.2115 25.0637 66.1032 25.5894C66.9869 26.1229 67.9606 26.3824 69.0241 26.3824Z" fill="#AE4C2D"/>
<path d="M88.9562 28.6795V16.1885C88.9562 14.64 89.3983 13.4247 90.2894 12.5433C91.1811 11.6619 92.4018 11.2246 93.9748 11.2246H97.6076V13.9286H94.5589C93.795 13.9286 93.203 14.1439 92.7761 14.5807C92.3493 15.018 92.1395 15.6181 92.1395 16.396V28.6795H88.9562Z" fill="#AE4C2D"/>
<path d="M107.982 29.0864C106.641 29.0864 105.42 28.8789 104.311 28.4567C103.203 28.0344 102.244 27.412 101.443 26.5899C100.633 25.7672 100.004 24.7818 99.5547 23.6264C99.1052 22.4777 98.8807 21.1813 98.8807 19.744C98.8807 17.9214 99.255 16.336 100.004 15.0022C100.753 13.6689 101.78 12.6388 103.083 11.9056C104.386 11.1718 105.847 10.8089 107.457 10.8089C108.356 10.8089 109.218 10.9571 110.034 11.2535C110.851 11.5499 111.584 11.9648 112.228 12.4833C112.873 13.0095 113.382 13.6241 113.749 14.3282H113.817V3.69629H117V19.8475C117 21.7887 116.603 23.4485 115.809 24.8265C115.015 26.2045 113.944 27.2638 112.588 27.9902C111.255 28.7234 109.712 29.0864 107.982 29.0864ZM107.982 26.3824C109.068 26.3824 110.049 26.1229 110.925 25.5972C111.802 25.0709 112.498 24.3299 113.015 23.3742C113.532 22.4184 113.794 21.2848 113.794 19.9885C113.794 18.6624 113.532 17.5216 113.015 16.5507C112.498 15.5804 111.802 14.8321 110.925 14.3059C110.049 13.7796 109.06 13.5207 107.952 13.5207C106.866 13.5207 105.884 13.7947 104.993 14.3428C104.102 14.8914 103.405 15.647 102.88 16.6027C102.364 17.5585 102.101 18.677 102.101 19.9588C102.101 21.2848 102.364 22.4262 102.896 23.3815C103.427 24.3372 104.139 25.0782 105.023 25.6045C105.914 26.1229 106.895 26.3824 107.982 26.3824Z" fill="#AE4C2D"/>
<path d="M83.2115 7.3939C85.2756 7.3939 86.9489 5.73873 86.9489 3.69721C86.9489 1.65516 85.2756 0 83.2115 0C81.147 0 79.4736 1.65516 79.4736 3.69721C79.4736 5.73873 81.147 7.3939 83.2115 7.3939Z" fill="#D07C31"/>
<path d="M83.2116 38.9994C85.2756 38.9994 86.949 37.3442 86.949 35.3027C86.949 33.2606 85.2756 31.6055 83.2116 31.6055C81.147 31.6055 79.4736 33.2606 79.4736 35.3027C79.4736 37.3442 81.147 38.9994 83.2116 38.9994Z" fill="#D07C31"/>
</svg>
